<svg xmlns="http://www.w3.org/2000/svg" width="151" height="43" version="1.1" viewBox="0 0 151 43">
  <g>
    <g id="Layer_1">
      <g>
        <path d="M28.5,26.5l1.4,3.5h4l-8-18.4h-.2l-8,18.4h3.4l1.4-3.5h5.9ZM23.8,23.6l1.8-4.3,1.7,4.3h-3.5Z"/>
        <rect x="36.4" y="12.3" width="3.5" height="17.7"/>
        <path d="M55.4,22.4c.5-.6.8-1.2,1.1-2,.2-.7.3-1.4.3-2.2s-.2-1.7-.5-2.5c-.3-.7-.7-1.4-1.3-1.9-.6-.5-1.3-.9-2.2-1.2-.9-.3-1.8-.4-3-.4h-5.4v17.7h3.5v-5.6h2.3l3.7,5.6h4.1l-4.1-6.4c.6-.3,1-.7,1.4-1.2ZM48,15.7h2.5c.6,0,1.1.1,1.5.3s.6.5.8.8c.2.3.3.6.3.9,0,.3,0,.5,0,.7s0,.5-.1.8c0,.3-.2.6-.4.9-.2.3-.5.5-.8.7-.4.2-.8.3-1.3.3h-2.5v-5.3Z"/>
        <path d="M74.3,26.9c-.4.1-.8.2-1.3.2s-.9,0-1.4-.2c-.5-.1-1-.3-1.5-.5-.5-.2-.9-.5-1.4-.8l-1.5,2.7c.6.4,1.3.8,1.9,1.1s1.4.5,2.1.6c.7.1,1.4.2,2.1.2,1.3,0,2.4-.2,3.3-.7s1.6-1.1,2-1.9c.5-.8.7-1.6.7-2.5s-.1-1.6-.4-2.1-.6-1.1-1-1.5c-.4-.4-.9-.7-1.4-1-.5-.3-1-.5-1.5-.7-.6-.2-1.1-.4-1.6-.7s-.9-.5-1.3-.9c-.3-.3-.5-.7-.5-1.1,0-.6.2-1.1.6-1.4.4-.3,1-.5,1.8-.5s1.3.1,2,.4c.7.2,1.4.5,2.1.9l1.3-2.7c-.7-.5-1.5-.9-2.4-1.2s-2-.5-3.5-.5c-1.1,0-2,.3-2.9.7-.8.4-1.5,1-1.9,1.8-.5.8-.7,1.6-.7,2.7s.2,1.6.5,2.1.7,1.1,1.2,1.5c.5.4,1,.7,1.6,1,.6.3,1.1.5,1.7.7.5.2.9.4,1.3.6.4.2.7.5.9.8.2.3.3.6.3,1,0,.5-.1.9-.4,1.2s-.6.5-1.1.6Z"/>
        <path d="M91.6,26.5l1.4,3.5h4l-8-18.4h-.2l-8,18.4h3.4l1.4-3.5h5.9ZM86.9,23.6l1.8-4.3,1.7,4.3h-3.5Z"/>
        <polygon points="99.6 12.3 99.6 30 111.4 30 111.4 26.6 103 26.6 103 12.3 99.6 12.3"/>
        <path d="M118.9,29.5c1.1.5,2.3.7,3.5.7s2.4-.2,3.5-.7c1.1-.5,2.1-1.1,2.9-1.9s1.5-1.8,2-2.9.7-2.3.7-3.5-.2-2.4-.7-3.5-1.1-2.1-2-2.9-1.8-1.5-2.9-2c-1.1-.5-2.2-.7-3.5-.7s-2.4.2-3.5.7c-1.1.5-2,1.1-2.9,2s-1.5,1.8-1.9,2.9c-.5,1.1-.7,2.2-.7,3.5s.2,2.4.7,3.5c.5,1.1,1.1,2,1.9,2.9s1.8,1.5,2.9,1.9ZM117.4,19c.3-.7.7-1.3,1.2-1.8.5-.5,1.1-.9,1.7-1.2.7-.3,1.4-.4,2.1-.4s1.5.1,2.1.4c.7.3,1.2.7,1.7,1.2.5.5.9,1.1,1.2,1.8.3.7.4,1.4.4,2.2s-.1,1.5-.4,2.2c-.3.7-.6,1.3-1.1,1.8-.5.5-1,.9-1.7,1.2-.6.3-1.3.4-2.1.4s-1.5-.1-2.2-.4c-.7-.3-1.2-.7-1.8-1.2-.5-.5-.9-1.1-1.2-1.8-.3-.7-.4-1.4-.4-2.2s.1-1.5.4-2.2Z"/>
        <polygon points="151 12.3 151 4 151 .2 151 0 0 0 0 4 147 4 147 22.4 135.3 11.6 135.1 11.6 135.1 30 138.6 30 138.6 19.6 147 27.2 147 27.2 147.1 27.2 150.9 30.7 151 30.7 151 12.3 151 12.3"/>
        <polygon points="4 22.8 11.4 22.8 11.4 30 14.9 30 14.9 12.3 11.4 12.3 11.4 19.5 4 19.5 4 12 0 12 0 12.3 0 30 0 39 0 43 4 43 151 43 151 39 4 39 4 22.8"/>
      </g>
    </g>
  </g>
</svg>